<svg xmlns="http://www.w3.org/2000/svg" id="nightmode" data-name="Layer 1" viewBox="0 0 24 24"><path fill="#4294ff" d="M17.75 12a5.736 5.736 0 01-5 5.69 4.718 4.718 0 01-1.5 0 5.738 5.738 0 010-11.38 4.718 4.718 0 011.5 0A5.736 5.736 0 0117.75 12zM12 4.75A.75.75 0 0111.25 4V2a.75.75 0 011.5 0V4A.75.75 0 0112 4.75zM17.657 7.093a.75.75 0 01-.53-1.28L18.541 4.4A.75.75 0 0119.6 5.459L18.188 6.873A.746.746 0 0117.657 7.093zM22 12.75H20a.75.75 0 010-1.5h2a.75.75 0 010 1.5zM19.071 19.821a.749.749 0 01-.53-.219l-1.414-1.414a.75.75 0 011.061-1.061L19.6 18.541a.75.75 0 01-.531 1.28zM12 22.75a.75.75 0 01-.75-.75V20a.75.75 0 011.5 0v2A.75.75 0 0112 22.75z"/><path fill="#ffd064" d="M4.929 19.821a.75.75 0 01-.531-1.28l1.415-1.414a.75.75 0 011.06 1.061L5.459 19.6A.747.747 0 014.929 19.821zM4 12.75H2a.75.75 0 010-1.5H4a.75.75 0 010 1.5zM6.343 7.093a.742.742 0 01-.53-.22L4.4 5.459A.75.75 0 015.459 4.4L6.873 5.813a.75.75 0 01-.53 1.28zM12.75 6.31V17.69a4.718 4.718 0 01-1.5 0V6.31a4.718 4.718 0 011.5 0z"/><path fill="#ffd064" d="M12 14.25H7.22a.75.75 0 110-1.5H12a.75.75 0 010 1.5zM12 11.25H7.22a.75.75 0 110-1.5H12a.75.75 0 010 1.5z"/><path fill="#ffd064" d="M12,16.25a4.25,4.25,0,0,1,0-8.5V6.25a5.75,5.75,0,0,0,0,11.5Z"/></svg>