<svg xmlns="http://www.w3.org/2000/svg" viewBox="0 0 26 26" id="Pause"><g transform="translate(0 -1026.362)" fill="#595bd4" class="color000000 svgShape"><circle cx="13" cy="1039.362" r="13" fill="#fe9526" class="coloref4c45 svgShape"></circle><path style="line-height:normal;text-indent:0;text-align:start;text-decoration-line:none;text-decoration-style:solid;text-decoration-color:#000;text-transform:none;block-progression:tb;isolation:auto;mix-blend-mode:normal;marker:none" fill="#167ffc" d="M16.896 25.387a13 13 0 0 0 .815-.27 13 13 0 0 0 1.185-.531 13 13 0 0 0 1.127-.647 13 13 0 0 0 1.057-.755 13 13 0 0 0 .977-.858 13 13 0 0 0 .886-.951 13 13 0 0 0 .786-1.035 13 13 0 0 0 .68-1.108 13 13 0 0 0 .566-1.17 13 13 0 0 0 .421-1.156l-8.152-8.15A5.98 5.98 0 0 0 13 7a5.994 5.994 0 0 0-6.002 6c0 .622.095 1.221.27 1.785v.002c.116.375.269.735.453 1.074v.002c.276.51.626.975 1.033 1.381l8.142 8.143z" color="#000" font-family="sans-serif" font-weight="400" transform="translate(0 1026.362)" class="colordf2209 svgShape"></path><path style="line-height:normal;text-indent:0;text-align:start;text-decoration-line:none;text-decoration-style:solid;text-decoration-color:#000;text-transform:none;block-progression:tb;isolation:auto;mix-blend-mode:normal;marker:none" fill="#53d86a" d="M8 2c3.32 0 6 2.68 6 6s-2.68 6-6 6a5.994 5.994 0 0 1-6.002-6C1.998 4.68 4.68 2 8 2ZM6.5 5.5v5h1v-5zm2 0v5h1v-5z" color="#000" font-family="sans-serif" font-weight="400" overflow="visible" transform="translate(5.001 1031.362)" class="colorffffff svgShape"></path></g></svg>