<svg xmlns="http://www.w3.org/2000/svg" viewBox="0 0 26 26" id="Play"><g fill="#53d86a" transform="translate(5 -1031.362)" class="colorffffff svgShape"><circle cx="8" cy="1044.362" r="13" fill="#fe9526" fill-rule="evenodd" class="coloref4c45 svgShape"></circle><path fill="#167ffc" style="line-height:normal;text-indent:0;text-align:start;text-decoration-line:none;text-decoration-style:solid;text-decoration-color:#000;text-transform:none;block-progression:tb;isolation:auto;mix-blend-mode:normal;marker:none" d="M15.787 25.682a13 13 0 0 0 .69-.157 13 13 0 0 0 1.234-.408 13 13 0 0 0 1.185-.531 13 13 0 0 0 1.127-.647 13 13 0 0 0 1.057-.755 13 13 0 0 0 .977-.858 13 13 0 0 0 .886-.951 13 13 0 0 0 .786-1.035 13 13 0 0 0 .68-1.108 13 13 0 0 0 .566-1.17 13 13 0 0 0 .445-1.22 13 13 0 0 0 .267-1.049l-7.74-7.74A6.978 6.978 0 0 0 13 6c-3.86 0-7 3.14-7 7 0 1.447.442 2.793 1.197 3.91v.002c.126.186.26.365.403.537v.002c.142.173.295.338.453.496l7.734 7.735z" color="#000" font-family="sans-serif" font-weight="400" transform="translate(-5 1031.362)" class="colordf2209 svgShape"></path><path style="line-height:normal;text-indent:0;text-align:start;text-decoration-line:none;text-decoration-style:solid;text-decoration-color:#000;text-transform:none;block-progression:tb;isolation:auto;mix-blend-mode:normal;marker:none" d="M8 1C4.14 1 1 4.14 1 8s3.14 7 7 7 7-3.14 7-7-3.14-7-7-7zm0 1c3.32 0 6 2.68 6 6s-2.68 6-6 6a5.994 5.994 0 0 1-6.002-6C1.998 4.68 4.68 2 8 2ZM6.51 4a.5.5 0 0 0-.51.5v7a.5.5 0 0 0 .828.377l4.002-3.502a.5.5 0 0 0 0-.752C9.497 6.456 8.161 5.292 6.828 4.125A.5.5 0 0 0 6.51 4ZM7 5.602l2.74 2.396-2.74 2.4V5.602Z" color="#000" font-family="sans-serif" font-weight="400" overflow="visible" transform="translate(0 1036.362)" fill="#595bd4" class="color000000 svgShape"></path></g></svg>