<svg xmlns="http://www.w3.org/2000/svg" data-name="Layer 1" viewBox="0 0 64 64" id="flexibility-skill"><path d="M53.833 18a8.084 8.084 0 0 0-8.167 8 7.8 7.8 0 0 0 .975 3.79 9.021 9.021 0 0 1-2.563 3.794c-.133.1-.085.391.063.382a12.191 12.191 0 0 0 5.24-1.266A8.228 8.228 0 0 0 53.833 34a8 8 0 1 0 0-16zM53 27H51V25h2zm4 0H55V25h2zM10.167 34a8.228 8.228 0 0 0 4.452-1.3 12.191 12.191 0 0 0 5.24 1.266c.148.009.2-.284.063-.382a9.021 9.021 0 0 1-2.563-3.794A7.8 7.8 0 0 0 18.334 26a8.084 8.084 0 0 0-8.167-8 8 8 0 1 0 0 16zM11 23h2v2H11zM7 23H9v2H7zm1 4c0 .408.779 1 2 1s2-.592 2-1h2c0 1.683-1.757 3-4 3s-4-1.317-4-3z"></path><circle cx="32" cy="37.5" r="4.5"></circle><path d="M37 59l.038-.132a21.568 21.568 0 0 0 0-12.736L37 46h.327a2.955 2.955 0 0 1 2.534 1.434L45 56l3-1-5.018-9.319A7 7 0 0 0 36.819 42H27.808a7 7 0 0 0-6.534 4.487L18 55l3 1 3.257-8.143A2.954 2.954 0 0 1 27 46l.038.132a21.568 21.568 0 0 1 0 12.736L27 59H16l-2 3H50l-2-3zM16.569 45.178l-1.91-1.323a4.657 4.657 0 0 0-5.838.41 2.666 2.666 0 0 1-3.345.233l-1.907-1.32L2.431 44.822l1.906 1.321a4.656 4.656 0 0 0 5.84-.408 2.664 2.664 0 0 1 3.344-.235l1.91 1.322zM57.005 44.773a2.658 2.658 0 0 1-2.828-.508 4.658 4.658 0 0 0-5.84-.408l-.906.628 1.138 1.645.907-.628a2.666 2.666 0 0 1 3.345.233A4.541 4.541 0 0 0 57 46.859L57 50l5-4-4.992-4zM22 11.659a9.76 9.76 0 0 0 8.182 9.5c.589.1 1.2 2.842 1.818 2.842s1.229-2.738 1.818-2.842A9.76 9.76 0 0 0 42 11.659 9.834 9.834 0 0 0 32 2 9.834 9.834 0 0 0 22 11.659zM37.283 8.414L29.57 16.127 26 12.564l1.414-1.414L29.567 13.3l6.3-6.3z"></path></svg>