<?xml version="1.0" standalone="no"?>
<!DOCTYPE svg PUBLIC "-//W3C//DTD SVG 20010904//EN"
 "http://www.w3.org/TR/2001/REC-SVG-20010904/DTD/svg10.dtd">
<svg version="1.0" xmlns="http://www.w3.org/2000/svg"
 width="500.000000pt" height="500.000000pt" viewBox="0 0 500.000000 500.000000"
 preserveAspectRatio="xMidYMid meet">
<metadata>
Created by potrace 1.14, written by Peter Selinger 2001-2017
</metadata>
<g transform="translate(0.000000,500.000000) scale(0.100000,-0.100000)"
fill="#000000" stroke="none">
<path d="M2487 3584 c-1 -1 -30 -4 -63 -8 -132 -14 -290 -89 -399 -188 -41
-38 -83 -82 -94 -97 l-20 -28 60 -1 c54 0 63 2 86 28 57 64 148 39 158 -44 4
-27 -1 -42 -21 -65 -36 -44 -90 -43 -134 0 l-31 31 -137 0 -137 -1 -27 33
c-82 100 -239 39 -238 -91 1 -68 48 -119 119 -128 48 -6 86 9 121 49 l26 28
312 1 c292 0 312 1 317 18 8 24 60 61 105 75 73 22 165 -21 200 -92 37 -76 21
-155 -43 -211 -71 -62 -176 -55 -241 17 l-36 40 -294 0 -294 0 -5 -32 c-6 -38
-1 -189 8 -233 10 -51 46 -157 67 -199 94 -186 285 -343 477 -391 89 -23 110
-25 216 -25 211 -1 411 87 550 242 77 86 77 86 -9 86 -55 0 -76 -4 -80 -14 -3
-8 -17 -19 -31 -24 -33 -12 -80 9 -88 41 -6 24 6 64 24 75 21 13 70 6 91 -13
17 -15 39 -18 152 -18 l133 0 37 -33 c37 -32 49 -36 96 -32 109 8 130 164 29
209 -51 23 -92 14 -129 -26 l-25 -28 -220 0 -220 1 -40 -31 c-91 -72 -166
-100 -270 -104 -158 -5 -319 89 -389 228 -14 28 -26 52 -26 53 0 2 259 3 576
2 408 -1 577 2 580 10 11 28 10 184 -1 254 -21 129 -63 227 -144 335 -117 159
-313 273 -502 293 -53 5 -149 10 -152 8z"/>
</g>
</svg>
