<svg xmlns="http://www.w3.org/2000/svg" id="adaptability-skill" data-name="Layer 1" viewBox="0 0 64 64"><circle cx="10" cy="6" r="3" fill="#628ec5"/><path fill="#628ec5" d="M8,10h4a3,3,0,0,1,3,3v7a0,0,0,0,1,0,0H5a0,0,0,0,1,0,0V13A3,3,0,0,1,8,10Z"/><circle cx="32" cy="6" r="3" fill="#628ec5"/><path fill="#628ec5" d="M30,10h4a3,3,0,0,1,3,3v7a0,0,0,0,1,0,0H27a0,0,0,0,1,0,0V13A3,3,0,0,1,30,10Z"/><circle cx="54" cy="6" r="3" fill="#628ec5"/><path fill="#628ec5" d="M52,10h4a3,3,0,0,1,3,3v7a0,0,0,0,1,0,0H49a0,0,0,0,1,0,0V13A3,3,0,0,1,52,10Z"/><polygon fill="#e6eef3" points="32 10 30 15 32 17 34 15 32 10"/><circle cx="23" cy="33" r="3" fill="#7cb2f8"/><path fill="#7cb2f8" d="M26,47l2-1V40a3,3,0,0,0-3-3H21a3,3,0,0,0-3,3v6l2,1,1,10h4Z"/><path fill="#c9e6fb" d="M31.571,38.61a8.474,8.474,0,0,0,2.35-3.557,7.519,7.519,0,1,1,2.512,2.728h0c0,.01,0,0,0,0a10.963,10.963,0,0,1-4.8,1.187C31.493,38.976,31.45,38.7,31.571,38.61Z"/><circle cx="8" cy="50.5" r="2.5" fill="#628ec5"/><path fill="#628ec5" d="M10,54H6a2,2,0,0,0-2,2v6h8V56A2,2,0,0,0,10,54Z"/><circle cx="57" cy="50.5" r="2.5" fill="#628ec5"/><path fill="#606060" d="M59,54H55a2,2,0,0,0-2,2v6h8V56A2,2,0,0,0,59,54Z"/><circle cx="45" cy="50.5" r="2.5" fill="#628ec5"/><path fill="#628ec5" d="M47 54H43a2 2 0 0 0-2 2v6h8V56A2 2 0 0 0 47 54zM59 54H55a2 2 0 0 0-2 2v6h8V56A2 2 0 0 0 59 54z"/><path d="M60 13a3.993 3.993 0 0 0-3.45-3.944 4 4 0 1 0-5.1 0A3.993 3.993 0 0 0 48 13v6H38V13a3.993 3.993 0 0 0-3.45-3.944 4 4 0 1 0-5.1 0A3.993 3.993 0 0 0 26 13v6H16V13a3.993 3.993 0 0 0-3.45-3.944 4 4 0 1 0-5.1 0A3.993 3.993 0 0 0 4 13v6H2v2H62V19H60zM10 4A2 2 0 1 1 8 6 2 2 0 0 1 10 4zm4 15H6V13a2 2 0 0 1 2-2h4a2 2 0 0 1 2 2zM32 4a2 2 0 1 1-2 2A2 2 0 0 1 32 4zm.826 10.759L32 15.586l-.826-.827L32 12.692zM36 19H28V13a2 2 0 0 1 2-2h.523l-1.452 3.628a1 1 0 0 0 .222 1.079l2 2a1 1 0 0 0 1.414 0l2-2a1 1 0 0 0 .222-1.079L33.477 11H34a2 2 0 0 1 2 2zM54 4a2 2 0 1 1-2 2A2 2 0 0 1 54 4zm4 15H50V13a2 2 0 0 1 2-2h4a2 2 0 0 1 2 2zM39.389 36.157a.99.99 0 0 0 .2-.021 1 1 0 0 0 .665-.481L44.367 28.5l-1.734-1-3.55 6.179L37.1 32.2l-1.2 1.6 2.889 2.157A1 1 0 0 0 39.389 36.157zM21 58h4a1 1 0 0 0 1-.9l.945-9.452 1.507-.753A1 1 0 0 0 29 46V40a3.993 3.993 0 0 0-3.45-3.944 4 4 0 1 0-5.1 0A3.993 3.993 0 0 0 17 40v6a1 1 0 0 0 .553.9l1.507.753.945 9.452A1 1 0 0 0 21 58zm2-27a2 2 0 1 1-2 2A2 2 0 0 1 23 31zM19 45.382V40a2 2 0 0 1 2-2h4a2 2 0 0 1 2 2v5.382l-1.447.723a1 1 0 0 0-.548.8L24.1 56h-2.19L21 46.9a1 1 0 0 0-.548-.8z"/><path d="M30.972 37.81l0 0a1.237 1.237 0 0 0-.391 1.41 1.121 1.121 0 0 0 1.112.744 13.963 13.963 0 0 0 4.728-1.026 8.5 8.5 0 1 0-4.391-7.44 8.518 8.518 0 0 0 .8 3.6A7.14 7.14 0 0 1 30.972 37.81zM34.8 34.577a6.516 6.516 0 1 1 2.216 2.391 1 1 0 0 0-.559-.186H36.4a1 1 0 0 0-.544.182A6.464 6.464 0 0 1 33.7 37.7a11.7 11.7 0 0 0 1.161-2.293A1 1 0 0 0 34.8 34.577zM3 56v6H5V56a1 1 0 0 1 1-1h4a1 1 0 0 1 1 1v6h2V56a2.993 2.993 0 0 0-2.607-2.96 3.5 3.5 0 1 0-4.786 0A2.993 2.993 0 0 0 3 56zm5-7a1.5 1.5 0 1 1-1.5 1.5A1.5 1.5 0 0 1 8 49zM50 62V56a2.993 2.993 0 0 0-2.607-2.96 3.5 3.5 0 1 0-4.786 0A2.993 2.993 0 0 0 40 56v6h2V56a1 1 0 0 1 1-1h4a1 1 0 0 1 1 1v6zM45 52a1.5 1.5 0 1 1 1.5-1.5A1.5 1.5 0 0 1 45 52zM59.393 53.04a3.5 3.5 0 1 0-4.786 0A2.993 2.993 0 0 0 52 56v6h2V56a1 1 0 0 1 1-1h4a1 1 0 0 1 1 1v6h2V56A2.993 2.993 0 0 0 59.393 53.04zM57 52a1.5 1.5 0 1 1 1.5-1.5A1.5 1.5 0 0 1 57 52z"/></svg>