<svg xmlns="http://www.w3.org/2000/svg" viewBox="0 0 64 64" id="Mindful"><path fill="#595bd4" d="M32 38.6c6.5 0 11.7-5.2 11.7-11.7S38.5 15.1 32 15.1c-6.5 0-11.7 5.2-11.7 11.7S25.5 38.6 32 38.6zm0 2.1C19.1 40.7 8.7 51.1 8.7 64h46.6c0-12.9-10.4-23.3-23.3-23.3z" class="color2c3a45 svgShape"></path><path fill="#167ffc" d="M31.2 10.4s.1.1.2.1l.1.1c.1.1.3.1.5.1s.3 0 .5-.1c.1 0 .1-.1.2-.1 0 0 .1-.1.2-.1l2.4-2.2c.2-.2.4-.5.4-.8 0-.3-.1-.6-.3-.9-.2-.2-.6-.4-.9-.4-.3 0-.6.1-.8.3l-.3.3V1.2C33.2.5 32.7 0 32 0s-1.2.5-1.2 1.2v5.5l-.3-.3c-.2-.2-.5-.3-.8-.3-.3 0-.7.1-.9.4-.5.5-.4 1.3.1 1.7l2.3 2.2zm10.3 2.8c0 .1.1.2.2.4.1.1.2.2.3.4.1 0 .1.1.2.1l.1.1c.1 0 .3.1.4.1h.1l3.2-.4c.7-.1 1.1-.7 1.1-1.3-.1-.6-.6-1.1-1.2-1.1h-.2l-.5.1L48.6 7c.2-.3.3-.6.2-.9-.1-.3-.2-.6-.5-.8-.2-.2-.5-.2-.7-.2-.4 0-.8.2-1 .5L43.4 10l-.1-.5c-.1-.6-.6-1-1.2-1h-.2c-.3.1-.6.2-.8.5-.2.3-.2.6-.2.9l.6 3.3zm16.9 6c-.2-.5-.6-.8-1.2-.8-.1 0-.3 0-.4.1l-5.3 1.7.2-.4c.1-.3.1-.6 0-.9-.1-.3-.3-.5-.6-.7-.1-.2-.2-.2-.4-.2-.5 0-.9.3-1.1.7l-1.4 2.9c0 .1 0 .1-.1.3v.2c0 .1 0 .3.1.5 0 .1.1.3.2.4l.1.1c.1.1.2.2.3.2l2.8 1.6c.2.1.4.2.6.2.4 0 .8-.2 1.1-.6.2-.3.2-.6.1-.9-.1-.3-.3-.6-.6-.7l-.4-.2 5.3-1.7c.5-.5.9-1.2.7-1.8zm-39.7-7.7-.5-.1H18c-.6 0-1.1.5-1.2 1.1-.1.7.4 1.3 1.1 1.3l3.2.4h.1c.1 0 .3 0 .4-.1 0 0 .1 0 .2-.1 0 0 .1 0 .2-.1s.2-.2.3-.4c.1-.1.1-.2.1-.4l.6-3.2c.1-.3 0-.6-.2-.9-.2-.3-.5-.5-.8-.5h-.2c-.6 0-1.1.4-1.2 1v.5l-3.3-4.5c-.2-.3-.6-.5-1-.5-.3 0-.5.1-.7.2-.3.2-.4.5-.5.8-.1.3 0 .6.2.9l3.4 4.6zm-7.4 11.1c-.3.2-.5.4-.6.7s0 .6.1.9c.2.4.6.6 1.1.6.2 0 .4-.1.6-.2l2.9-1.6c.1 0 .2-.1.2-.2l-.1-.2.2.1c.1-.1.2-.2.2-.4 0-.1.1-.3.1-.5 0-.1 0-.1-.1-.3v-.2l-1.4-2.9c-.2-.4-.6-.7-1.1-.7-.2 0-.3 0-.5.1-.3.1-.5.4-.6.7-.1.3-.1.6 0 .9l.2.4-5.3-1.7c-.1 0-.2-.1-.4-.1-.5 0-1 .3-1.2.8-.2.6.1 1.3.8 1.5l5.3 1.7-.4.6z" class="color0171b9 svgShape"></path></svg>