<svg xmlns="http://www.w3.org/2000/svg" data-name="Layer 1" viewBox="0 0 128 128" id="Teamwork"><path fill="#595bd4" d="M54.21167 23.28336a18.47111 18.47111 0 0 0 .96033 1.90332C57.3316 28.9039 60.39319 30.951 63.79254 30.951s6.52679-2.034 8.80615-5.7276A18.988 18.988 0 0 0 73.601 23.37143 5.31126 5.31126 0 0 0 76.757 18.54337a3.90137 3.90137 0 0 0-1.18152-2.79883c.02-.33453.02966-.67108.02966-1.004 0-6.74274-4.68353-12.89166-11.81262-12.89166a10.56818 10.56818 0 0 0-8.47632 3.89526 14.49913 14.49913 0 0 0-2.91986 8.9964c0 .33008.00867.66748.02637 1.00568a3.90135 3.90135 0 0 0-1.17987 2.79718A5.26917 5.26917 0 0 0 54.21167 23.28336zm.35919-4.83209a1.75749 1.75749 0 0 1 .36279-.54919 3.64388 3.64388 0 0 0 .62823-.78082c.40118-.82111-.15143-1.8136.04034-2.70715 4.32025.18439 8.39545-1.774 12.51007-3.10394a9.856 9.856 0 0 1 3.04211-.60193 1.36466 1.36466 0 0 1 .74915.16681 1.42686 1.42686 0 0 1 .50549.9231 8.01075 8.01075 0 0 1 .07635 3.16449 8.6703 8.6703 0 0 0-.212 1.398 1.7 1.7 0 0 0 .4751 1.289c.15637.14209.349.24146.49695.39221a1.30276 1.30276 0 0 1-.0188 1.65509 2.89543 2.89543 0 0 1-1.53412.896 1.08029 1.08029 0 0 0-.39874.17212 1.02823 1.02823 0 0 0-.25812.41241c-1.33331 3.1405-3.81989 6.912-7.75006 6.52869-3.33112-.325-5.40875-3.64764-6.424-6.50708a1.07141 1.07141 0 0 0-.21252-.40759 1.17131 1.17131 0 0 0-.53033-.24481 2.56818 2.56818 0 0 1-1.24585-.73212A1.40018 1.40018 0 0 1 54.57086 18.45126zM62.8634 44.20169l-1.15771-3.93738a5.99931 5.99931 0 0 1 4.58868 0l-1.15765 3.93738L66.71313 57.7261h20.6983L86.20837 46.32492a8.47431 8.47431 0 0 0-2.94922-6.006c-1.9248-1.552-4.56024-2.19171-7.04559-2.886-.10046-.02771-4.97327-1.34259-4.97327-.94775-.01605-.16022-.37573-3.88477-.37573-3.88477l-6.86334 3.89h-.00244l-6.86334-3.89s-.35968 3.72455-.37573 3.88477c0-.39484-4.87268.92-4.97327.94775-2.48535.69427-5.12079 1.334-7.04559 2.886a8.47455 8.47455 0 0 0-2.94922 6.006L40.58856 57.7261H61.287zM22.80017 96.66806a13.43641 13.43641 0 0 0 .74976 1.51288c1.47992 2.54828 3.56 3.95361 5.85333 3.95361 2.29572 0 4.42627-1.39844 5.99188-3.938a13.3012 13.3012 0 0 0 .785-1.47791 3.34436 3.34436 0 0 0 2.17242-3.12854 2.35524 2.35524 0 0 0-.87518-1.82983c.02423-.31665.03522-.6333.03522-.94342 0-4.67139-3.20337-8.89844-8.10937-8.89844a7.21835 7.21835 0 0 0-5.79376 2.65613 10.06641 10.06641 0 0 0-2.01434 6.24237c0 .31256.011.62671.0332.94574a2.34455 2.34455 0 0 0-.873 1.82745A3.34013 3.34013 0 0 0 22.80017 96.66806zM45.54779 110.21451c-1.58868-1.42035-3.77936-1.99774-5.84973-2.63586-.08423-.024-4.12842-1.22766-4.12842-.86664-.01215-.15643-.313-3.56281-.313-3.56281L29.55127 106.712l-5.7052-3.56281s-.301 3.40637-.313 3.56281c0-.361-4.04419.84265-4.12854.86664-2.05817.63812-4.24884 1.21552-5.84961 2.63586a8.09747 8.09747 0 0 0-2.45557 5.50073l-.9989 10.43591h38.902l-.99908-10.43591A8.04444 8.04444 0 0 0 45.54779 110.21451zM91.69745 96.66806a13.416 13.416 0 0 0 .74982 1.51288c1.4798 2.54828 3.55988 3.95361 5.85333 3.95361 2.29565 0 4.42615-1.39844 5.99176-3.938a13.291 13.291 0 0 0 .785-1.47791 3.34447 3.34447 0 0 0 2.17255-3.12854 2.35535 2.35535 0 0 0-.87531-1.82983c.02423-.31665.03528-.6333.03528-.94342-.00006-4.673-3.21021-8.89844-8.10931-8.89844a7.21818 7.21818 0 0 0-5.79382 2.65619 9.92448 9.92448 0 0 0-2.01428 6.24231c0 .31256.011.62671.033.94574a2.34477 2.34477 0 0 0-.87286 1.82745A3.34 3.34 0 0 0 91.69745 96.66806zM116.90063 115.71524a8.045 8.045 0 0 0-2.45551-5.50073c-1.58881-1.42035-3.77948-1.99774-5.84985-2.63586-.08411-.024-4.12842-1.22766-4.12842-.86664-.01208-.15643-.313-3.56281-.313-3.56281l-5.7052 3.56281-5.70526-3.56281s-.301 3.40637-.313 3.56281c0-.361-4.04419.84265-4.12848.86664-2.05829.63812-4.249 1.21552-5.84973 2.63586a8.09713 8.09713 0 0 0-2.45551 5.50073l-.999 10.43591h38.902z" class="color3a5062 svgShape"></path><path fill="#167ffc" d="M83.21875,106.15433a3.5,3.5,0,0,0,.07227-4.94922L67.5,84.9426V64a3.5,3.5,0,0,0-7,0V85.86978L44.78125,101.13187a3.50035,3.50035,0,0,0,4.877,5.02246L64.42163,91.81973l13.8479,14.26135a3.5,3.5,0,0,0,4.94922.07324Z" class="color1786c4 svgShape"></path></svg>