<svg xmlns="http://www.w3.org/2000/svg" enable-background="new 0 0 64 64" viewBox="0 0 64 64" id="Back"><path fill="#167ffc" d="M44.3,45.6c0.7,0,1.4-0.3,1.9-0.8c1.1-1.1,1.1-2.8,0-3.9l-9-9l9-9c1.1-1.1,1.1-2.8,0-3.9c-1.1-1.1-2.8-1.1-3.9,0L31.4,30.1c-1.1,1.1-1.1,2.8,0,3.9l10.9,10.9C42.9,45.4,43.6,45.6,44.3,45.6z" class="color36c4d0 svgShape"></path><path fill="#53d86a" d="M44.3,44.8L33.4,33.9c-1.1-1.1-1.1-2.8,0-3.9l10.9-10.9c0.3-0.3,0.6-0.5,0.9-0.6c-1-0.4-2.1-0.2-2.9,0.6L31.4,30.1c-1.1,1.1-1.1,2.8,0,3.9l10.9,10.9c0.5,0.5,1.2,0.8,1.9,0.8c0.3,0,0.7-0.1,1-0.2C44.9,45.3,44.6,45.1,44.3,44.8z" class="color64d2db svgShape"></path><path fill="#167ffc" d="M30.6,45.6c0.7,0,1.4-0.3,1.9-0.8c1.1-1.1,1.1-2.8,0-3.9l-9-9l9-9c1.1-1.1,1.1-2.8,0-3.9c-1.1-1.1-2.8-1.1-3.9,0L17.8,30.1c-1.1,1.1-1.1,2.8,0,3.9l10.9,10.9C29.2,45.4,29.9,45.6,30.6,45.6z" class="color36c4d0 svgShape"></path><path fill="#53d86a" d="M30.7,44.8L19.8,33.9c-1.1-1.1-1.1-2.8,0-3.9l10.9-10.9c0.3-0.3,0.6-0.5,0.9-0.6c-1-0.4-2.1-0.2-2.9,0.6L17.8,30.1c-1.1,1.1-1.1,2.8,0,3.9l10.9,10.9c0.5,0.5,1.2,0.8,1.9,0.8c0.3,0,0.7-0.1,1-0.2C31.3,45.3,31,45.1,30.7,44.8z" class="color64d2db svgShape"></path></svg>



<svg xmlns="http://www.w3.org/2000/svg" viewBox="0 0 64 64" id="Down"><path d="M32 47.75a2 2 0 0 1-1.45-.62l-11-11.5a2 2 0 0 1 2.9-2.76l11 11.5a2 2 0 0 1-.07 2.83 2 2 0 0 1-1.38.55Z" fill="#595bd4" class="color000000 svgShape"></path><path d="M32 47.75a2 2 0 0 1-1.38-.55 2 2 0 0 1-.07-2.83l11-11.5a2 2 0 1 1 2.9 2.76l-11 11.5a2 2 0 0 1-1.45.62zm0-16a2 2 0 0 1-1.45-.62l-11-11.5a2 2 0 0 1 2.9-2.76l11 11.5a2 2 0 0 1-.07 2.83 2 2 0 0 1-1.38.55z" fill="#595bd4" class="color000000 svgShape"></path><path d="M32 31.75a2 2 0 0 1-1.38-.55 2 2 0 0 1-.07-2.83l11-11.5a2 2 0 1 1 2.9 2.76l-11 11.5a2 2 0 0 1-1.45.62Z" fill="#595bd4" class="color000000 svgShape"></path></svg>