<?xml version="1.0" ?><!DOCTYPE svg  PUBLIC '-//W3C//DTD SVG 1.1//EN'  'http://www.w3.org/Graphics/SVG/1.1/DTD/svg11.dtd'><svg enable-background="new 0 0 128 128" height="128px" version="1.1" viewBox="0 0 128 128" width="128px" xml:space="preserve" xmlns="http://www.w3.org/2000/svg" xmlns:xlink="http://www.w3.org/1999/xlink"><g id="OBJECT"><g><g><path d="M55.796,108.737c-0.512,0-1.023-0.195-1.414-0.586c-0.781-0.781-0.781-2.047,0-2.828l41.326-41.322L54.381,22.678     c-0.781-0.781-0.781-2.047,0-2.828s2.047-0.781,2.828,0L99.95,62.587c0.375,0.375,0.586,0.884,0.586,1.414     s-0.211,1.039-0.586,1.414l-42.74,42.736C56.819,108.542,56.308,108.737,55.796,108.737z"/></g><g><path d="M29.469,108.737c-0.512,0-1.023-0.195-1.414-0.586c-0.781-0.781-0.781-2.047,0-2.828l41.326-41.322L28.054,22.678     c-0.781-0.781-0.781-2.047,0-2.828s2.047-0.781,2.828,0l42.741,42.737c0.375,0.375,0.586,0.884,0.586,1.414     s-0.211,1.039-0.586,1.414l-42.74,42.736C30.492,108.542,29.98,108.737,29.469,108.737z"/></g></g></g></svg>